<mxfile host="app.diagrams.net" modified="2024-01-26T03:31:11.575Z" agent="Mozilla/5.0 (Macintosh; Intel Mac OS X 10_15_7) AppleWebKit/537.36 (KHTML, like Gecko) Chrome/120.0.0.0 Safari/537.36" etag="syiZ9a-oZtZrKgPUfrHz" version="23.0.2" type="device">
  <diagram name="Page-1" id="2cc2dc42-3aac-f2a9-1cec-7a8b7cbee084">
    <mxGraphModel dx="2382" dy="1570" grid="1" gridSize="10" guides="1" tooltips="1" connect="1" arrows="1" fold="1" page="1" pageScale="1" pageWidth="1100" pageHeight="850" background="none" math="0" shadow="0">
      <root>
        <mxCell id="0" />
        <mxCell id="1" parent="0" />
        <mxCell id="7026571954dc6520-1" value="" style="strokeWidth=1;shadow=0;dashed=0;align=center;html=1;shape=mxgraph.mockup.containers.browserWindow;rSize=0;strokeColor=#666666;mainText=,;recursiveResize=0;rounded=0;labelBackgroundColor=none;fontFamily=Verdana;fontSize=12;movable=1;resizable=1;rotatable=1;deletable=1;editable=1;locked=0;connectable=1;fillColor=#f5f5f5;fontColor=#333333;" parent="1" vertex="1">
          <mxGeometry x="70" y="29" width="1280" height="720" as="geometry" />
        </mxCell>
        <mxCell id="7026571954dc6520-2" value="" style="strokeWidth=1;shadow=0;dashed=0;align=center;html=1;shape=mxgraph.mockup.containers.anchor;fontSize=17;fontColor=#666666;align=left;" parent="7026571954dc6520-1" vertex="1">
          <mxGeometry x="60" y="12" width="110" height="26" as="geometry" />
        </mxCell>
        <mxCell id="7026571954dc6520-3" value="" style="strokeWidth=1;shadow=0;dashed=0;align=center;html=1;shape=mxgraph.mockup.containers.anchor;rSize=0;fontSize=17;fontColor=#666666;align=left;" parent="7026571954dc6520-1" vertex="1">
          <mxGeometry x="130" y="60" width="250" height="26" as="geometry" />
        </mxCell>
        <mxCell id="Rc8ZxAyn7R7xk7LbHmul-19" value="&lt;font style=&quot;font-size: 24px;&quot;&gt;ユーザー管理&lt;/font&gt;" style="text;html=1;strokeColor=none;fillColor=none;align=center;verticalAlign=middle;whiteSpace=wrap;rounded=0;" vertex="1" parent="7026571954dc6520-1">
          <mxGeometry x="220" y="120" width="150" height="50" as="geometry" />
        </mxCell>
        <mxCell id="Rc8ZxAyn7R7xk7LbHmul-21" value="" style="rounded=1;whiteSpace=wrap;html=1;arcSize=2;movable=1;resizable=1;rotatable=1;deletable=1;editable=1;locked=0;connectable=1;strokeColor=default;" vertex="1" parent="7026571954dc6520-1">
          <mxGeometry x="220" y="234" width="1020" height="470" as="geometry" />
        </mxCell>
        <mxCell id="Rc8ZxAyn7R7xk7LbHmul-20" value="&lt;font color=&quot;#ffffff&quot; style=&quot;font-size: 16px;&quot;&gt;ユーザー追加&lt;/font&gt;" style="rounded=1;whiteSpace=wrap;html=1;arcSize=9;fillColor=#66B2FF;strokeColor=#3399FF;fontColor=#333333;strokeWidth=1;shadow=0;" vertex="1" parent="7026571954dc6520-1">
          <mxGeometry x="1099" y="120" width="140" height="40" as="geometry" />
        </mxCell>
        <mxCell id="Rc8ZxAyn7R7xk7LbHmul-25" value="" style="rounded=1;whiteSpace=wrap;html=1;arcSize=10;strokeColor=none;" vertex="1" parent="7026571954dc6520-1">
          <mxGeometry x="220" y="168" width="1020" height="54" as="geometry" />
        </mxCell>
        <mxCell id="Rc8ZxAyn7R7xk7LbHmul-28" value="&lt;font style=&quot;font-size: 18px;&quot;&gt;ユーザーリスト&lt;/font&gt;" style="text;html=1;strokeColor=none;fillColor=none;align=left;verticalAlign=middle;whiteSpace=wrap;rounded=0;" vertex="1" parent="7026571954dc6520-1">
          <mxGeometry x="300" y="182" width="150" height="30" as="geometry" />
        </mxCell>
        <mxCell id="Rc8ZxAyn7R7xk7LbHmul-92" value="" style="rounded=1;whiteSpace=wrap;html=1;arcSize=21;fillColor=#E6E6E6;strokeColor=none;strokeWidth=1;" vertex="1" parent="7026571954dc6520-1">
          <mxGeometry x="221" y="235" width="1018" height="35" as="geometry" />
        </mxCell>
        <mxCell id="Rc8ZxAyn7R7xk7LbHmul-1" value="" style="swimlane;startSize=0;" vertex="1" parent="7026571954dc6520-1">
          <mxGeometry y="110" width="170" height="610" as="geometry" />
        </mxCell>
        <mxCell id="Rc8ZxAyn7R7xk7LbHmul-89" value="" style="rounded=0;whiteSpace=wrap;html=1;" vertex="1" parent="Rc8ZxAyn7R7xk7LbHmul-1">
          <mxGeometry y="50" width="170" height="560" as="geometry" />
        </mxCell>
        <mxCell id="Rc8ZxAyn7R7xk7LbHmul-3" value="" style="rounded=0;whiteSpace=wrap;html=1;" vertex="1" parent="Rc8ZxAyn7R7xk7LbHmul-1">
          <mxGeometry width="170" height="50" as="geometry" />
        </mxCell>
        <mxCell id="Rc8ZxAyn7R7xk7LbHmul-9" value="&lt;font color=&quot;#808080&quot;&gt;メニューを隠す&lt;/font&gt;" style="text;html=1;strokeColor=none;fillColor=none;align=center;verticalAlign=middle;whiteSpace=wrap;rounded=0;" vertex="1" parent="Rc8ZxAyn7R7xk7LbHmul-1">
          <mxGeometry x="40" y="10" width="90" height="30" as="geometry" />
        </mxCell>
        <mxCell id="Rc8ZxAyn7R7xk7LbHmul-10" value="" style="html=1;verticalLabelPosition=bottom;labelBackgroundColor=#ffffff;verticalAlign=top;shadow=0;dashed=0;strokeWidth=2;shape=mxgraph.ios7.misc.left;strokeColor=#999999;" vertex="1" parent="Rc8ZxAyn7R7xk7LbHmul-1">
          <mxGeometry x="20" y="19" width="6" height="12" as="geometry" />
        </mxCell>
        <mxCell id="Rc8ZxAyn7R7xk7LbHmul-13" value="" style="group" vertex="1" connectable="0" parent="Rc8ZxAyn7R7xk7LbHmul-1">
          <mxGeometry x="20" y="86.09" width="128.78" height="20" as="geometry" />
        </mxCell>
        <mxCell id="Rc8ZxAyn7R7xk7LbHmul-12" value="" style="sketch=0;outlineConnect=0;fontColor=#232F3E;gradientColor=none;fillColor=#808080;strokeColor=none;dashed=0;verticalLabelPosition=bottom;verticalAlign=top;align=center;html=1;fontSize=12;fontStyle=0;aspect=fixed;pointerEvents=1;shape=mxgraph.aws4.opensearch_dashboards;" vertex="1" parent="Rc8ZxAyn7R7xk7LbHmul-13">
          <mxGeometry width="23.56" height="17.82" as="geometry" />
        </mxCell>
        <mxCell id="Rc8ZxAyn7R7xk7LbHmul-11" value="&lt;font style=&quot;font-size: 12px;&quot; color=&quot;#808080&quot;&gt;ダッシュボード&lt;/font&gt;" style="text;html=1;strokeColor=none;fillColor=none;align=left;verticalAlign=middle;whiteSpace=wrap;rounded=0;" vertex="1" parent="Rc8ZxAyn7R7xk7LbHmul-1">
          <mxGeometry x="50" y="86.09" width="90" height="20" as="geometry" />
        </mxCell>
        <mxCell id="Rc8ZxAyn7R7xk7LbHmul-17" value="" style="group" vertex="1" connectable="0" parent="Rc8ZxAyn7R7xk7LbHmul-1">
          <mxGeometry x="23" y="121" width="130" height="26" as="geometry" />
        </mxCell>
        <mxCell id="Rc8ZxAyn7R7xk7LbHmul-18" value="" style="rounded=1;whiteSpace=wrap;html=1;arcSize=15;strokeWidth=0;fillColor=#f5f5f5;strokeColor=#666666;fontColor=#333333;shadow=1;" vertex="1" parent="Rc8ZxAyn7R7xk7LbHmul-17">
          <mxGeometry x="-13" y="-5" width="150" height="30" as="geometry" />
        </mxCell>
        <mxCell id="Rc8ZxAyn7R7xk7LbHmul-14" value="&lt;font color=&quot;#66b2ff&quot;&gt;ユーザー管理&lt;/font&gt;" style="text;html=1;strokeColor=none;fillColor=none;align=left;verticalAlign=middle;whiteSpace=wrap;rounded=0;" vertex="1" parent="Rc8ZxAyn7R7xk7LbHmul-17">
          <mxGeometry x="27" y="1" width="81.22" height="20" as="geometry" />
        </mxCell>
        <mxCell id="Rc8ZxAyn7R7xk7LbHmul-16" value="" style="sketch=0;pointerEvents=1;shadow=0;dashed=0;html=1;strokeColor=none;fillColor=#66B2FF;labelPosition=center;verticalLabelPosition=bottom;verticalAlign=top;outlineConnect=0;align=center;shape=mxgraph.office.users.user;" vertex="1" parent="Rc8ZxAyn7R7xk7LbHmul-17">
          <mxGeometry width="16" height="16" as="geometry" />
        </mxCell>
        <mxCell id="Rc8ZxAyn7R7xk7LbHmul-34" value="&lt;font style=&quot;font-size: 14px;&quot;&gt;No&lt;/font&gt;" style="text;html=1;strokeColor=none;fillColor=none;align=center;verticalAlign=middle;whiteSpace=wrap;rounded=0;" vertex="1" parent="7026571954dc6520-1">
          <mxGeometry x="225" y="238" width="60" height="30" as="geometry" />
        </mxCell>
        <mxCell id="Rc8ZxAyn7R7xk7LbHmul-35" value="&lt;span style=&quot;font-size: 14px;&quot;&gt;ユーザー名&lt;/span&gt;" style="text;html=1;strokeColor=none;fillColor=none;align=left;verticalAlign=middle;whiteSpace=wrap;rounded=0;" vertex="1" parent="7026571954dc6520-1">
          <mxGeometry x="300" y="238" width="90" height="30" as="geometry" />
        </mxCell>
        <mxCell id="Rc8ZxAyn7R7xk7LbHmul-37" value="&lt;span style=&quot;font-size: 14px;&quot;&gt;メール&lt;/span&gt;" style="text;html=1;strokeColor=none;fillColor=none;align=left;verticalAlign=middle;whiteSpace=wrap;rounded=0;" vertex="1" parent="7026571954dc6520-1">
          <mxGeometry x="530" y="238" width="90" height="30" as="geometry" />
        </mxCell>
        <mxCell id="Rc8ZxAyn7R7xk7LbHmul-38" value="&lt;span style=&quot;font-size: 14px;&quot;&gt;役割&lt;br&gt;&lt;/span&gt;" style="text;html=1;strokeColor=none;fillColor=none;align=left;verticalAlign=middle;whiteSpace=wrap;rounded=0;" vertex="1" parent="7026571954dc6520-1">
          <mxGeometry x="760" y="238" width="90" height="30" as="geometry" />
        </mxCell>
        <mxCell id="Rc8ZxAyn7R7xk7LbHmul-94" value="" style="rounded=0;whiteSpace=wrap;html=1;strokeColor=none;fillColor=#f5f5f5;fontColor=#333333;" vertex="1" parent="7026571954dc6520-1">
          <mxGeometry x="221" y="285" width="1018" height="40" as="geometry" />
        </mxCell>
        <mxCell id="Rc8ZxAyn7R7xk7LbHmul-95" value="" style="rounded=0;whiteSpace=wrap;html=1;strokeColor=none;fillColor=#f5f5f5;fontColor=#333333;" vertex="1" parent="7026571954dc6520-1">
          <mxGeometry x="221" y="376" width="1018" height="40" as="geometry" />
        </mxCell>
        <mxCell id="Rc8ZxAyn7R7xk7LbHmul-97" value="" style="rounded=0;whiteSpace=wrap;html=1;strokeColor=none;fillColor=#f5f5f5;fontColor=#333333;" vertex="1" parent="7026571954dc6520-1">
          <mxGeometry x="221" y="576" width="1018" height="40" as="geometry" />
        </mxCell>
        <mxCell id="Rc8ZxAyn7R7xk7LbHmul-40" value="" style="rounded=1;whiteSpace=wrap;html=1;arcSize=12;" vertex="1" parent="7026571954dc6520-1">
          <mxGeometry x="1020" y="290" width="90" height="30" as="geometry" />
        </mxCell>
        <mxCell id="Rc8ZxAyn7R7xk7LbHmul-41" value="" style="rounded=1;whiteSpace=wrap;html=1;arcSize=12;" vertex="1" parent="7026571954dc6520-1">
          <mxGeometry x="1130" y="290" width="90" height="30" as="geometry" />
        </mxCell>
        <mxCell id="Rc8ZxAyn7R7xk7LbHmul-42" value="" style="shape=image;html=1;verticalAlign=top;verticalLabelPosition=bottom;labelBackgroundColor=#ffffff;imageAspect=0;aspect=fixed;image=https://cdn2.iconfinder.com/data/icons/boxicons-solid-vol-2/24/bxs-edit-128.png" vertex="1" parent="7026571954dc6520-1">
          <mxGeometry x="1025" y="296" width="18" height="18" as="geometry" />
        </mxCell>
        <mxCell id="Rc8ZxAyn7R7xk7LbHmul-43" value="" style="shape=image;html=1;verticalAlign=top;verticalLabelPosition=bottom;labelBackgroundColor=#ffffff;imageAspect=0;aspect=fixed;image=https://cdn3.iconfinder.com/data/icons/user-interface-169/32/trash-128.png" vertex="1" parent="7026571954dc6520-1">
          <mxGeometry x="1136" y="295" width="18" height="18" as="geometry" />
        </mxCell>
        <mxCell id="Rc8ZxAyn7R7xk7LbHmul-44" value="編集" style="text;html=1;strokeColor=none;fillColor=none;align=center;verticalAlign=middle;whiteSpace=wrap;rounded=0;" vertex="1" parent="7026571954dc6520-1">
          <mxGeometry x="1043" y="290" width="60" height="30" as="geometry" />
        </mxCell>
        <mxCell id="Rc8ZxAyn7R7xk7LbHmul-45" value="削除" style="text;html=1;strokeColor=none;fillColor=none;align=center;verticalAlign=middle;whiteSpace=wrap;rounded=0;" vertex="1" parent="7026571954dc6520-1">
          <mxGeometry x="1154" y="289" width="60" height="30" as="geometry" />
        </mxCell>
        <mxCell id="Rc8ZxAyn7R7xk7LbHmul-46" value="" style="rounded=1;whiteSpace=wrap;html=1;arcSize=12;" vertex="1" parent="7026571954dc6520-1">
          <mxGeometry x="1020" y="335.5" width="90" height="30" as="geometry" />
        </mxCell>
        <mxCell id="Rc8ZxAyn7R7xk7LbHmul-47" value="" style="rounded=1;whiteSpace=wrap;html=1;arcSize=12;" vertex="1" parent="7026571954dc6520-1">
          <mxGeometry x="1130" y="335.5" width="90" height="30" as="geometry" />
        </mxCell>
        <mxCell id="Rc8ZxAyn7R7xk7LbHmul-48" value="" style="shape=image;html=1;verticalAlign=top;verticalLabelPosition=bottom;labelBackgroundColor=#ffffff;imageAspect=0;aspect=fixed;image=https://cdn2.iconfinder.com/data/icons/boxicons-solid-vol-2/24/bxs-edit-128.png" vertex="1" parent="7026571954dc6520-1">
          <mxGeometry x="1025" y="341.5" width="18" height="18" as="geometry" />
        </mxCell>
        <mxCell id="Rc8ZxAyn7R7xk7LbHmul-49" value="" style="shape=image;html=1;verticalAlign=top;verticalLabelPosition=bottom;labelBackgroundColor=#ffffff;imageAspect=0;aspect=fixed;image=https://cdn3.iconfinder.com/data/icons/user-interface-169/32/trash-128.png" vertex="1" parent="7026571954dc6520-1">
          <mxGeometry x="1136" y="340.5" width="18" height="18" as="geometry" />
        </mxCell>
        <mxCell id="Rc8ZxAyn7R7xk7LbHmul-50" value="編集" style="text;html=1;strokeColor=none;fillColor=none;align=center;verticalAlign=middle;whiteSpace=wrap;rounded=0;" vertex="1" parent="7026571954dc6520-1">
          <mxGeometry x="1043" y="335.5" width="60" height="30" as="geometry" />
        </mxCell>
        <mxCell id="Rc8ZxAyn7R7xk7LbHmul-51" value="削除" style="text;html=1;strokeColor=none;fillColor=none;align=center;verticalAlign=middle;whiteSpace=wrap;rounded=0;" vertex="1" parent="7026571954dc6520-1">
          <mxGeometry x="1154" y="334.5" width="60" height="30" as="geometry" />
        </mxCell>
        <mxCell id="Rc8ZxAyn7R7xk7LbHmul-52" value="" style="rounded=1;whiteSpace=wrap;html=1;arcSize=12;" vertex="1" parent="7026571954dc6520-1">
          <mxGeometry x="1020" y="381" width="90" height="30" as="geometry" />
        </mxCell>
        <mxCell id="Rc8ZxAyn7R7xk7LbHmul-53" value="" style="rounded=1;whiteSpace=wrap;html=1;arcSize=12;" vertex="1" parent="7026571954dc6520-1">
          <mxGeometry x="1130" y="381" width="90" height="30" as="geometry" />
        </mxCell>
        <mxCell id="Rc8ZxAyn7R7xk7LbHmul-54" value="" style="shape=image;html=1;verticalAlign=top;verticalLabelPosition=bottom;labelBackgroundColor=#ffffff;imageAspect=0;aspect=fixed;image=https://cdn2.iconfinder.com/data/icons/boxicons-solid-vol-2/24/bxs-edit-128.png" vertex="1" parent="7026571954dc6520-1">
          <mxGeometry x="1025" y="387" width="18" height="18" as="geometry" />
        </mxCell>
        <mxCell id="Rc8ZxAyn7R7xk7LbHmul-55" value="" style="shape=image;html=1;verticalAlign=top;verticalLabelPosition=bottom;labelBackgroundColor=#ffffff;imageAspect=0;aspect=fixed;image=https://cdn3.iconfinder.com/data/icons/user-interface-169/32/trash-128.png" vertex="1" parent="7026571954dc6520-1">
          <mxGeometry x="1136" y="386" width="18" height="18" as="geometry" />
        </mxCell>
        <mxCell id="Rc8ZxAyn7R7xk7LbHmul-56" value="編集" style="text;html=1;strokeColor=none;fillColor=none;align=center;verticalAlign=middle;whiteSpace=wrap;rounded=0;" vertex="1" parent="7026571954dc6520-1">
          <mxGeometry x="1043" y="381" width="60" height="30" as="geometry" />
        </mxCell>
        <mxCell id="Rc8ZxAyn7R7xk7LbHmul-57" value="削除" style="text;html=1;strokeColor=none;fillColor=none;align=center;verticalAlign=middle;whiteSpace=wrap;rounded=0;" vertex="1" parent="7026571954dc6520-1">
          <mxGeometry x="1154" y="380" width="60" height="30" as="geometry" />
        </mxCell>
        <mxCell id="Rc8ZxAyn7R7xk7LbHmul-58" value="" style="rounded=1;whiteSpace=wrap;html=1;arcSize=12;" vertex="1" parent="7026571954dc6520-1">
          <mxGeometry x="1020" y="431" width="90" height="30" as="geometry" />
        </mxCell>
        <mxCell id="Rc8ZxAyn7R7xk7LbHmul-59" value="" style="rounded=1;whiteSpace=wrap;html=1;arcSize=12;" vertex="1" parent="7026571954dc6520-1">
          <mxGeometry x="1130" y="431" width="90" height="30" as="geometry" />
        </mxCell>
        <mxCell id="Rc8ZxAyn7R7xk7LbHmul-60" value="" style="shape=image;html=1;verticalAlign=top;verticalLabelPosition=bottom;labelBackgroundColor=#ffffff;imageAspect=0;aspect=fixed;image=https://cdn2.iconfinder.com/data/icons/boxicons-solid-vol-2/24/bxs-edit-128.png" vertex="1" parent="7026571954dc6520-1">
          <mxGeometry x="1025" y="437" width="18" height="18" as="geometry" />
        </mxCell>
        <mxCell id="Rc8ZxAyn7R7xk7LbHmul-61" value="" style="shape=image;html=1;verticalAlign=top;verticalLabelPosition=bottom;labelBackgroundColor=#ffffff;imageAspect=0;aspect=fixed;image=https://cdn3.iconfinder.com/data/icons/user-interface-169/32/trash-128.png" vertex="1" parent="7026571954dc6520-1">
          <mxGeometry x="1136" y="436" width="18" height="18" as="geometry" />
        </mxCell>
        <mxCell id="Rc8ZxAyn7R7xk7LbHmul-62" value="編集" style="text;html=1;strokeColor=none;fillColor=none;align=center;verticalAlign=middle;whiteSpace=wrap;rounded=0;" vertex="1" parent="7026571954dc6520-1">
          <mxGeometry x="1043" y="431" width="60" height="30" as="geometry" />
        </mxCell>
        <mxCell id="Rc8ZxAyn7R7xk7LbHmul-63" value="削除" style="text;html=1;strokeColor=none;fillColor=none;align=center;verticalAlign=middle;whiteSpace=wrap;rounded=0;" vertex="1" parent="7026571954dc6520-1">
          <mxGeometry x="1154" y="430" width="60" height="30" as="geometry" />
        </mxCell>
        <mxCell id="Rc8ZxAyn7R7xk7LbHmul-70" value="" style="rounded=1;whiteSpace=wrap;html=1;arcSize=12;" vertex="1" parent="7026571954dc6520-1">
          <mxGeometry x="1020" y="531" width="90" height="30" as="geometry" />
        </mxCell>
        <mxCell id="Rc8ZxAyn7R7xk7LbHmul-71" value="" style="rounded=1;whiteSpace=wrap;html=1;arcSize=12;" vertex="1" parent="7026571954dc6520-1">
          <mxGeometry x="1130" y="531" width="90" height="30" as="geometry" />
        </mxCell>
        <mxCell id="Rc8ZxAyn7R7xk7LbHmul-72" value="" style="shape=image;html=1;verticalAlign=top;verticalLabelPosition=bottom;labelBackgroundColor=#ffffff;imageAspect=0;aspect=fixed;image=https://cdn2.iconfinder.com/data/icons/boxicons-solid-vol-2/24/bxs-edit-128.png" vertex="1" parent="7026571954dc6520-1">
          <mxGeometry x="1025" y="537" width="18" height="18" as="geometry" />
        </mxCell>
        <mxCell id="Rc8ZxAyn7R7xk7LbHmul-73" value="" style="shape=image;html=1;verticalAlign=top;verticalLabelPosition=bottom;labelBackgroundColor=#ffffff;imageAspect=0;aspect=fixed;image=https://cdn3.iconfinder.com/data/icons/user-interface-169/32/trash-128.png" vertex="1" parent="7026571954dc6520-1">
          <mxGeometry x="1136" y="536" width="18" height="18" as="geometry" />
        </mxCell>
        <mxCell id="Rc8ZxAyn7R7xk7LbHmul-74" value="編集" style="text;html=1;strokeColor=none;fillColor=none;align=center;verticalAlign=middle;whiteSpace=wrap;rounded=0;" vertex="1" parent="7026571954dc6520-1">
          <mxGeometry x="1043" y="531" width="60" height="30" as="geometry" />
        </mxCell>
        <mxCell id="Rc8ZxAyn7R7xk7LbHmul-75" value="削除" style="text;html=1;strokeColor=none;fillColor=none;align=center;verticalAlign=middle;whiteSpace=wrap;rounded=0;" vertex="1" parent="7026571954dc6520-1">
          <mxGeometry x="1154" y="530" width="60" height="30" as="geometry" />
        </mxCell>
        <mxCell id="Rc8ZxAyn7R7xk7LbHmul-76" value="" style="rounded=1;whiteSpace=wrap;html=1;arcSize=12;" vertex="1" parent="7026571954dc6520-1">
          <mxGeometry x="1020" y="581" width="90" height="30" as="geometry" />
        </mxCell>
        <mxCell id="Rc8ZxAyn7R7xk7LbHmul-77" value="" style="rounded=1;whiteSpace=wrap;html=1;arcSize=12;" vertex="1" parent="7026571954dc6520-1">
          <mxGeometry x="1130" y="581" width="90" height="30" as="geometry" />
        </mxCell>
        <mxCell id="Rc8ZxAyn7R7xk7LbHmul-78" value="" style="shape=image;html=1;verticalAlign=top;verticalLabelPosition=bottom;labelBackgroundColor=#ffffff;imageAspect=0;aspect=fixed;image=https://cdn2.iconfinder.com/data/icons/boxicons-solid-vol-2/24/bxs-edit-128.png" vertex="1" parent="7026571954dc6520-1">
          <mxGeometry x="1025" y="587" width="18" height="18" as="geometry" />
        </mxCell>
        <mxCell id="Rc8ZxAyn7R7xk7LbHmul-79" value="" style="shape=image;html=1;verticalAlign=top;verticalLabelPosition=bottom;labelBackgroundColor=#ffffff;imageAspect=0;aspect=fixed;image=https://cdn3.iconfinder.com/data/icons/user-interface-169/32/trash-128.png" vertex="1" parent="7026571954dc6520-1">
          <mxGeometry x="1136" y="586" width="18" height="18" as="geometry" />
        </mxCell>
        <mxCell id="Rc8ZxAyn7R7xk7LbHmul-80" value="編集" style="text;html=1;strokeColor=none;fillColor=none;align=center;verticalAlign=middle;whiteSpace=wrap;rounded=0;" vertex="1" parent="7026571954dc6520-1">
          <mxGeometry x="1043" y="581" width="60" height="30" as="geometry" />
        </mxCell>
        <mxCell id="Rc8ZxAyn7R7xk7LbHmul-81" value="削除" style="text;html=1;strokeColor=none;fillColor=none;align=center;verticalAlign=middle;whiteSpace=wrap;rounded=0;" vertex="1" parent="7026571954dc6520-1">
          <mxGeometry x="1154" y="580" width="60" height="30" as="geometry" />
        </mxCell>
        <mxCell id="Rc8ZxAyn7R7xk7LbHmul-82" value="" style="rounded=1;whiteSpace=wrap;html=1;arcSize=12;" vertex="1" parent="7026571954dc6520-1">
          <mxGeometry x="1020" y="631" width="90" height="30" as="geometry" />
        </mxCell>
        <mxCell id="Rc8ZxAyn7R7xk7LbHmul-83" value="" style="rounded=1;whiteSpace=wrap;html=1;arcSize=12;" vertex="1" parent="7026571954dc6520-1">
          <mxGeometry x="1130" y="631" width="90" height="30" as="geometry" />
        </mxCell>
        <mxCell id="Rc8ZxAyn7R7xk7LbHmul-84" value="" style="shape=image;html=1;verticalAlign=top;verticalLabelPosition=bottom;labelBackgroundColor=#ffffff;imageAspect=0;aspect=fixed;image=https://cdn2.iconfinder.com/data/icons/boxicons-solid-vol-2/24/bxs-edit-128.png" vertex="1" parent="7026571954dc6520-1">
          <mxGeometry x="1025" y="637" width="18" height="18" as="geometry" />
        </mxCell>
        <mxCell id="Rc8ZxAyn7R7xk7LbHmul-85" value="" style="shape=image;html=1;verticalAlign=top;verticalLabelPosition=bottom;labelBackgroundColor=#ffffff;imageAspect=0;aspect=fixed;image=https://cdn3.iconfinder.com/data/icons/user-interface-169/32/trash-128.png" vertex="1" parent="7026571954dc6520-1">
          <mxGeometry x="1136" y="636" width="18" height="18" as="geometry" />
        </mxCell>
        <mxCell id="Rc8ZxAyn7R7xk7LbHmul-86" value="編集" style="text;html=1;strokeColor=none;fillColor=none;align=center;verticalAlign=middle;whiteSpace=wrap;rounded=0;" vertex="1" parent="7026571954dc6520-1">
          <mxGeometry x="1043" y="631" width="60" height="30" as="geometry" />
        </mxCell>
        <mxCell id="Rc8ZxAyn7R7xk7LbHmul-87" value="削除" style="text;html=1;strokeColor=none;fillColor=none;align=center;verticalAlign=middle;whiteSpace=wrap;rounded=0;" vertex="1" parent="7026571954dc6520-1">
          <mxGeometry x="1154" y="630" width="60" height="30" as="geometry" />
        </mxCell>
        <mxCell id="Rc8ZxAyn7R7xk7LbHmul-177" value="" style="rounded=0;whiteSpace=wrap;html=1;strokeColor=none;fillColor=#f5f5f5;fontColor=#333333;" vertex="1" parent="7026571954dc6520-1">
          <mxGeometry x="221" y="476" width="1018" height="40" as="geometry" />
        </mxCell>
        <mxCell id="Rc8ZxAyn7R7xk7LbHmul-64" value="" style="rounded=1;whiteSpace=wrap;html=1;arcSize=12;" vertex="1" parent="7026571954dc6520-1">
          <mxGeometry x="1020" y="481" width="90" height="30" as="geometry" />
        </mxCell>
        <mxCell id="Rc8ZxAyn7R7xk7LbHmul-65" value="" style="rounded=1;whiteSpace=wrap;html=1;arcSize=12;" vertex="1" parent="7026571954dc6520-1">
          <mxGeometry x="1130" y="481" width="90" height="30" as="geometry" />
        </mxCell>
        <mxCell id="Rc8ZxAyn7R7xk7LbHmul-66" value="" style="shape=image;html=1;verticalAlign=top;verticalLabelPosition=bottom;labelBackgroundColor=#ffffff;imageAspect=0;aspect=fixed;image=https://cdn2.iconfinder.com/data/icons/boxicons-solid-vol-2/24/bxs-edit-128.png" vertex="1" parent="7026571954dc6520-1">
          <mxGeometry x="1025" y="487" width="18" height="18" as="geometry" />
        </mxCell>
        <mxCell id="Rc8ZxAyn7R7xk7LbHmul-67" value="" style="shape=image;html=1;verticalAlign=top;verticalLabelPosition=bottom;labelBackgroundColor=#ffffff;imageAspect=0;aspect=fixed;image=https://cdn3.iconfinder.com/data/icons/user-interface-169/32/trash-128.png" vertex="1" parent="7026571954dc6520-1">
          <mxGeometry x="1136" y="486" width="18" height="18" as="geometry" />
        </mxCell>
        <mxCell id="Rc8ZxAyn7R7xk7LbHmul-68" value="編集" style="text;html=1;strokeColor=none;fillColor=none;align=center;verticalAlign=middle;whiteSpace=wrap;rounded=0;" vertex="1" parent="7026571954dc6520-1">
          <mxGeometry x="1043" y="481" width="60" height="30" as="geometry" />
        </mxCell>
        <mxCell id="Rc8ZxAyn7R7xk7LbHmul-69" value="削除" style="text;html=1;strokeColor=none;fillColor=none;align=center;verticalAlign=middle;whiteSpace=wrap;rounded=0;" vertex="1" parent="7026571954dc6520-1">
          <mxGeometry x="1154" y="480" width="60" height="30" as="geometry" />
        </mxCell>
        <mxCell id="Rc8ZxAyn7R7xk7LbHmul-178" value="1" style="text;html=1;strokeColor=none;fillColor=none;align=center;verticalAlign=middle;whiteSpace=wrap;rounded=0;" vertex="1" parent="7026571954dc6520-1">
          <mxGeometry x="245" y="289" width="20" height="30" as="geometry" />
        </mxCell>
        <mxCell id="Rc8ZxAyn7R7xk7LbHmul-179" value="3" style="text;html=1;strokeColor=none;fillColor=none;align=center;verticalAlign=middle;whiteSpace=wrap;rounded=0;" vertex="1" parent="7026571954dc6520-1">
          <mxGeometry x="245" y="384" width="20" height="30" as="geometry" />
        </mxCell>
        <mxCell id="Rc8ZxAyn7R7xk7LbHmul-180" value="2" style="text;html=1;strokeColor=none;fillColor=none;align=center;verticalAlign=middle;whiteSpace=wrap;rounded=0;" vertex="1" parent="7026571954dc6520-1">
          <mxGeometry x="245" y="334.5" width="20" height="30" as="geometry" />
        </mxCell>
        <mxCell id="Rc8ZxAyn7R7xk7LbHmul-181" value="4" style="text;html=1;strokeColor=none;fillColor=none;align=center;verticalAlign=middle;whiteSpace=wrap;rounded=0;" vertex="1" parent="7026571954dc6520-1">
          <mxGeometry x="245" y="430" width="20" height="30" as="geometry" />
        </mxCell>
        <mxCell id="Rc8ZxAyn7R7xk7LbHmul-182" value="5" style="text;html=1;strokeColor=none;fillColor=none;align=center;verticalAlign=middle;whiteSpace=wrap;rounded=0;" vertex="1" parent="7026571954dc6520-1">
          <mxGeometry x="245" y="481" width="20" height="30" as="geometry" />
        </mxCell>
        <mxCell id="Rc8ZxAyn7R7xk7LbHmul-183" value="6" style="text;html=1;strokeColor=none;fillColor=none;align=center;verticalAlign=middle;whiteSpace=wrap;rounded=0;" vertex="1" parent="7026571954dc6520-1">
          <mxGeometry x="245" y="531" width="20" height="30" as="geometry" />
        </mxCell>
        <mxCell id="Rc8ZxAyn7R7xk7LbHmul-184" value="7" style="text;html=1;strokeColor=none;fillColor=none;align=center;verticalAlign=middle;whiteSpace=wrap;rounded=0;" vertex="1" parent="7026571954dc6520-1">
          <mxGeometry x="245" y="581" width="20" height="30" as="geometry" />
        </mxCell>
        <mxCell id="Rc8ZxAyn7R7xk7LbHmul-185" value="8" style="text;html=1;strokeColor=none;fillColor=none;align=center;verticalAlign=middle;whiteSpace=wrap;rounded=0;" vertex="1" parent="7026571954dc6520-1">
          <mxGeometry x="245" y="630" width="20" height="30" as="geometry" />
        </mxCell>
        <mxCell id="Rc8ZxAyn7R7xk7LbHmul-186" value="sotaro" style="text;html=1;strokeColor=none;fillColor=none;align=left;verticalAlign=middle;whiteSpace=wrap;rounded=0;" vertex="1" parent="7026571954dc6520-1">
          <mxGeometry x="300" y="289" width="60" height="30" as="geometry" />
        </mxCell>
        <mxCell id="Rc8ZxAyn7R7xk7LbHmul-187" value="sotaro" style="text;html=1;strokeColor=none;fillColor=none;align=left;verticalAlign=middle;whiteSpace=wrap;rounded=0;" vertex="1" parent="7026571954dc6520-1">
          <mxGeometry x="300" y="335.5" width="60" height="30" as="geometry" />
        </mxCell>
        <mxCell id="Rc8ZxAyn7R7xk7LbHmul-188" value="sotaro" style="text;html=1;strokeColor=none;fillColor=none;align=left;verticalAlign=middle;whiteSpace=wrap;rounded=0;" vertex="1" parent="7026571954dc6520-1">
          <mxGeometry x="300" y="381" width="60" height="30" as="geometry" />
        </mxCell>
        <mxCell id="Rc8ZxAyn7R7xk7LbHmul-189" value="sotaro" style="text;html=1;strokeColor=none;fillColor=none;align=left;verticalAlign=middle;whiteSpace=wrap;rounded=0;" vertex="1" parent="7026571954dc6520-1">
          <mxGeometry x="300" y="431" width="60" height="30" as="geometry" />
        </mxCell>
        <mxCell id="Rc8ZxAyn7R7xk7LbHmul-190" value="sotaro" style="text;html=1;strokeColor=none;fillColor=none;align=left;verticalAlign=middle;whiteSpace=wrap;rounded=0;" vertex="1" parent="7026571954dc6520-1">
          <mxGeometry x="300" y="481" width="60" height="30" as="geometry" />
        </mxCell>
        <mxCell id="Rc8ZxAyn7R7xk7LbHmul-191" value="sotaro" style="text;html=1;strokeColor=none;fillColor=none;align=left;verticalAlign=middle;whiteSpace=wrap;rounded=0;" vertex="1" parent="7026571954dc6520-1">
          <mxGeometry x="300" y="531" width="60" height="30" as="geometry" />
        </mxCell>
        <mxCell id="Rc8ZxAyn7R7xk7LbHmul-192" value="sotaro" style="text;html=1;strokeColor=none;fillColor=none;align=left;verticalAlign=middle;whiteSpace=wrap;rounded=0;" vertex="1" parent="7026571954dc6520-1">
          <mxGeometry x="300" y="580" width="60" height="30" as="geometry" />
        </mxCell>
        <mxCell id="Rc8ZxAyn7R7xk7LbHmul-193" value="sotaro" style="text;html=1;strokeColor=none;fillColor=none;align=left;verticalAlign=middle;whiteSpace=wrap;rounded=0;" vertex="1" parent="7026571954dc6520-1">
          <mxGeometry x="300" y="631" width="60" height="30" as="geometry" />
        </mxCell>
        <mxCell id="Rc8ZxAyn7R7xk7LbHmul-194" value="abc@gmaii.com" style="text;html=1;strokeColor=none;fillColor=none;align=left;verticalAlign=middle;whiteSpace=wrap;rounded=0;" vertex="1" parent="7026571954dc6520-1">
          <mxGeometry x="530" y="290" width="110" height="30" as="geometry" />
        </mxCell>
        <mxCell id="Rc8ZxAyn7R7xk7LbHmul-195" value="abc@gmail.com" style="text;html=1;strokeColor=none;fillColor=none;align=left;verticalAlign=middle;whiteSpace=wrap;rounded=0;" vertex="1" parent="7026571954dc6520-1">
          <mxGeometry x="530" y="333.25" width="100" height="30" as="geometry" />
        </mxCell>
        <mxCell id="Rc8ZxAyn7R7xk7LbHmul-196" value="abc@gmail.com" style="text;html=1;strokeColor=none;fillColor=none;align=left;verticalAlign=middle;whiteSpace=wrap;rounded=0;" vertex="1" parent="7026571954dc6520-1">
          <mxGeometry x="530" y="378.75" width="100" height="30" as="geometry" />
        </mxCell>
        <mxCell id="Rc8ZxAyn7R7xk7LbHmul-197" value="abc@gmail.com" style="text;html=1;strokeColor=none;fillColor=none;align=left;verticalAlign=middle;whiteSpace=wrap;rounded=0;" vertex="1" parent="7026571954dc6520-1">
          <mxGeometry x="530" y="428.75" width="100" height="30" as="geometry" />
        </mxCell>
        <mxCell id="Rc8ZxAyn7R7xk7LbHmul-198" value="abc@gmail.com" style="text;html=1;strokeColor=none;fillColor=none;align=left;verticalAlign=middle;whiteSpace=wrap;rounded=0;" vertex="1" parent="7026571954dc6520-1">
          <mxGeometry x="530" y="478.75" width="100" height="30" as="geometry" />
        </mxCell>
        <mxCell id="Rc8ZxAyn7R7xk7LbHmul-199" value="abc@gmail.com" style="text;html=1;strokeColor=none;fillColor=none;align=left;verticalAlign=middle;whiteSpace=wrap;rounded=0;" vertex="1" parent="7026571954dc6520-1">
          <mxGeometry x="530" y="528.75" width="100" height="30" as="geometry" />
        </mxCell>
        <mxCell id="Rc8ZxAyn7R7xk7LbHmul-200" value="abc@gmail.com" style="text;html=1;strokeColor=none;fillColor=none;align=left;verticalAlign=middle;whiteSpace=wrap;rounded=0;" vertex="1" parent="7026571954dc6520-1">
          <mxGeometry x="530" y="577.75" width="100" height="30" as="geometry" />
        </mxCell>
        <mxCell id="Rc8ZxAyn7R7xk7LbHmul-201" value="abc@gmail.com" style="text;html=1;strokeColor=none;fillColor=none;align=left;verticalAlign=middle;whiteSpace=wrap;rounded=0;" vertex="1" parent="7026571954dc6520-1">
          <mxGeometry x="530" y="628.75" width="100" height="30" as="geometry" />
        </mxCell>
        <mxCell id="Rc8ZxAyn7R7xk7LbHmul-205" value="ADMIN" style="text;html=1;strokeColor=none;fillColor=none;align=left;verticalAlign=middle;whiteSpace=wrap;rounded=0;" vertex="1" parent="7026571954dc6520-1">
          <mxGeometry x="760" y="335.5" width="100" height="30" as="geometry" />
        </mxCell>
        <mxCell id="Rc8ZxAyn7R7xk7LbHmul-206" value="ADMIN" style="text;html=1;strokeColor=none;fillColor=none;align=left;verticalAlign=middle;whiteSpace=wrap;rounded=0;" vertex="1" parent="7026571954dc6520-1">
          <mxGeometry x="760" y="381" width="100" height="30" as="geometry" />
        </mxCell>
        <mxCell id="Rc8ZxAyn7R7xk7LbHmul-207" value="ADMIN" style="text;html=1;strokeColor=none;fillColor=none;align=left;verticalAlign=middle;whiteSpace=wrap;rounded=0;" vertex="1" parent="7026571954dc6520-1">
          <mxGeometry x="760" y="431" width="100" height="30" as="geometry" />
        </mxCell>
        <mxCell id="Rc8ZxAyn7R7xk7LbHmul-208" value="USER" style="text;html=1;strokeColor=none;fillColor=none;align=left;verticalAlign=middle;whiteSpace=wrap;rounded=0;" vertex="1" parent="7026571954dc6520-1">
          <mxGeometry x="760" y="481" width="100" height="30" as="geometry" />
        </mxCell>
        <mxCell id="Rc8ZxAyn7R7xk7LbHmul-209" value="USER" style="text;html=1;strokeColor=none;fillColor=none;align=left;verticalAlign=middle;whiteSpace=wrap;rounded=0;" vertex="1" parent="7026571954dc6520-1">
          <mxGeometry x="760" y="531" width="100" height="30" as="geometry" />
        </mxCell>
        <mxCell id="Rc8ZxAyn7R7xk7LbHmul-210" value="USER" style="text;html=1;strokeColor=none;fillColor=none;align=left;verticalAlign=middle;whiteSpace=wrap;rounded=0;" vertex="1" parent="7026571954dc6520-1">
          <mxGeometry x="760" y="580" width="100" height="30" as="geometry" />
        </mxCell>
        <mxCell id="Rc8ZxAyn7R7xk7LbHmul-211" value="USER" style="text;html=1;strokeColor=none;fillColor=none;align=left;verticalAlign=middle;whiteSpace=wrap;rounded=0;" vertex="1" parent="7026571954dc6520-1">
          <mxGeometry x="760" y="631" width="100" height="30" as="geometry" />
        </mxCell>
        <mxCell id="Rc8ZxAyn7R7xk7LbHmul-212" value="ADMIN" style="text;html=1;strokeColor=none;fillColor=none;align=left;verticalAlign=middle;whiteSpace=wrap;rounded=0;" vertex="1" parent="7026571954dc6520-1">
          <mxGeometry x="760" y="290" width="100" height="30" as="geometry" />
        </mxCell>
        <mxCell id="Rc8ZxAyn7R7xk7LbHmul-214" value="" style="group" vertex="1" connectable="0" parent="7026571954dc6520-1">
          <mxGeometry x="1019" y="177" width="210" height="35" as="geometry" />
        </mxCell>
        <mxCell id="Rc8ZxAyn7R7xk7LbHmul-27" value="" style="rounded=1;whiteSpace=wrap;html=1;arcSize=50;fillColor=#F2F2F2;fontColor=#333333;strokeColor=#C2C2C2;" vertex="1" parent="Rc8ZxAyn7R7xk7LbHmul-214">
          <mxGeometry width="200" height="33" as="geometry" />
        </mxCell>
        <mxCell id="Rc8ZxAyn7R7xk7LbHmul-32" value="" style="html=1;verticalLabelPosition=bottom;align=center;labelBackgroundColor=#ffffff;verticalAlign=top;strokeWidth=2;strokeColor=#808080;shadow=0;dashed=0;shape=mxgraph.ios7.icons.looking_glass;fillColor=#F2F2F2;" vertex="1" parent="Rc8ZxAyn7R7xk7LbHmul-214">
          <mxGeometry x="17.428571428571438" y="8.750000000000007" width="17.428571428571438" height="17.500000000000014" as="geometry" />
        </mxCell>
        <mxCell id="Rc8ZxAyn7R7xk7LbHmul-33" value="&lt;font color=&quot;#808080&quot; style=&quot;font-size: 13px;&quot;&gt;ユーザー検索&lt;/font&gt;" style="text;html=1;strokeColor=none;fillColor=none;align=center;verticalAlign=middle;whiteSpace=wrap;rounded=0;" vertex="1" parent="Rc8ZxAyn7R7xk7LbHmul-214">
          <mxGeometry x="60.001428571428555" y="4.3750000000000036" width="104.57142857142861" height="26.25000000000001" as="geometry" />
        </mxCell>
        <mxCell id="Rc8ZxAyn7R7xk7LbHmul-218" value="&lt;font color=&quot;#808080&quot;&gt;ページあたりの行数:&amp;nbsp;&lt;/font&gt;" style="text;html=1;strokeColor=none;fillColor=none;align=left;verticalAlign=middle;whiteSpace=wrap;rounded=0;" vertex="1" parent="7026571954dc6520-1">
          <mxGeometry x="245" y="676" width="125" height="18" as="geometry" />
        </mxCell>
        <mxCell id="Rc8ZxAyn7R7xk7LbHmul-220" value="" style="html=1;verticalLabelPosition=bottom;labelBackgroundColor=#ffffff;verticalAlign=top;shadow=0;dashed=0;strokeWidth=2;shape=mxgraph.ios7.misc.down;strokeColor=#4D4D4D;" vertex="1" parent="7026571954dc6520-1">
          <mxGeometry x="392" y="681" width="10" height="6" as="geometry" />
        </mxCell>
        <mxCell id="Rc8ZxAyn7R7xk7LbHmul-221" value="&lt;font color=&quot;#4d4d4d&quot;&gt;10&lt;/font&gt;" style="text;html=1;strokeColor=none;fillColor=none;align=center;verticalAlign=middle;whiteSpace=wrap;rounded=0;" vertex="1" parent="7026571954dc6520-1">
          <mxGeometry x="370" y="675" width="20" height="18" as="geometry" />
        </mxCell>
        <mxCell id="Rc8ZxAyn7R7xk7LbHmul-223" value="" style="html=1;verticalLabelPosition=bottom;labelBackgroundColor=#ffffff;verticalAlign=top;shadow=0;dashed=0;strokeWidth=2;shape=mxgraph.ios7.misc.left;strokeColor=#0080f0;" vertex="1" parent="7026571954dc6520-1">
          <mxGeometry x="1150" y="677" width="6" height="12" as="geometry" />
        </mxCell>
        <mxCell id="Rc8ZxAyn7R7xk7LbHmul-222" value="" style="html=1;verticalLabelPosition=bottom;labelBackgroundColor=#ffffff;verticalAlign=top;shadow=0;dashed=0;strokeWidth=2;shape=mxgraph.ios7.misc.right;strokeColor=#0080f0;" vertex="1" parent="7026571954dc6520-1">
          <mxGeometry x="1194" y="677" width="6" height="12" as="geometry" />
        </mxCell>
        <mxCell id="Rc8ZxAyn7R7xk7LbHmul-224" value="&lt;font color=&quot;#4d4d4d&quot;&gt;50 件中 1-10 件&lt;/font&gt;" style="text;html=1;strokeColor=none;fillColor=none;align=left;verticalAlign=middle;whiteSpace=wrap;rounded=0;" vertex="1" parent="7026571954dc6520-1">
          <mxGeometry x="1019" y="673" width="107" height="20" as="geometry" />
        </mxCell>
      </root>
    </mxGraphModel>
  </diagram>
</mxfile>
